<svg width="21" height="19" viewBox="0 0 21 19" fill="none" xmlns="http://www.w3.org/2000/svg">
<path d="M12.26 1.56617L13.8048 4.5293C13.9197 4.74742 14.0846 4.93522 14.2861 5.07731C14.4876 5.21939 14.7198 5.31172 14.9639 5.34674L18.2268 5.79361C19.9716 6.03423 20.6481 8.18542 19.3577 9.38167L17.1233 11.4435C16.9329 11.6185 16.7899 11.8389 16.7078 12.0842C16.6257 12.3295 16.6071 12.5916 16.6538 12.846L17.199 15.8696C17.5021 17.554 15.7497 18.8671 14.2118 18.0971L11.0933 16.5502C10.8786 16.4452 10.6427 16.3906 10.4037 16.3906C10.1647 16.3906 9.92883 16.4452 9.71414 16.5502L6.59564 18.0971C5.05701 18.8602 3.30526 17.554 3.60845 15.8696L4.15364 12.8453C4.24989 12.3297 4.07114 11.8003 3.68476 11.4428L1.4497 9.38167C0.159261 8.1923 0.835761 6.03355 2.58064 5.79292L5.84351 5.34605C6.08827 5.31322 6.32148 5.22175 6.52329 5.07943C6.7251 4.93711 6.88955 4.74814 7.00264 4.52861L8.54814 1.56617C9.33464 0.0742969 11.4796 0.0742969 12.2593 1.56617" fill="#FCD53F"/>
</svg>
