<svg width="306" height="139" viewBox="0 0 306 139" fill="none" xmlns="http://www.w3.org/2000/svg">
<g filter="url(#filter0_b_869_30)">
<rect width="306" height="139" rx="12" fill="black" fill-opacity="0.57"/>
<path d="M84.512 60.748C86.272 60.748 87.816 61.092 89.144 61.78C90.488 62.468 91.52 63.452 92.24 64.732C92.976 65.996 93.344 67.468 93.344 69.148C93.344 70.828 92.976 72.3 92.24 73.564C91.52 74.812 90.488 75.78 89.144 76.468C87.816 77.156 86.272 77.5 84.512 77.5H78.656V60.748H84.512ZM84.392 74.644C86.152 74.644 87.512 74.164 88.472 73.204C89.432 72.244 89.912 70.892 89.912 69.148C89.912 67.404 89.432 66.044 88.472 65.068C87.512 64.076 86.152 63.58 84.392 63.58H82.016V74.644H84.392ZM94.9951 70.804C94.9951 69.46 95.2591 68.268 95.7871 67.228C96.3311 66.188 97.0591 65.388 97.9711 64.828C98.8991 64.268 99.9311 63.988 101.067 63.988C102.059 63.988 102.923 64.188 103.659 64.588C104.411 64.988 105.011 65.492 105.459 66.1V64.204H108.843V77.5H105.459V75.556C105.027 76.18 104.427 76.7 103.659 77.116C102.907 77.516 102.035 77.716 101.043 77.716C99.9231 77.716 98.8991 77.428 97.9711 76.852C97.0591 76.276 96.3311 75.468 95.7871 74.428C95.2591 73.372 94.9951 72.164 94.9951 70.804ZM105.459 70.852C105.459 70.036 105.299 69.34 104.979 68.764C104.659 68.172 104.227 67.724 103.683 67.42C103.139 67.1 102.555 66.94 101.931 66.94C101.307 66.94 100.731 67.092 100.203 67.396C99.6751 67.7 99.2431 68.148 98.9071 68.74C98.5871 69.316 98.4271 70.004 98.4271 70.804C98.4271 71.604 98.5871 72.308 98.9071 72.916C99.2431 73.508 99.6751 73.964 100.203 74.284C100.747 74.604 101.323 74.764 101.931 74.764C102.555 74.764 103.139 74.612 103.683 74.308C104.227 73.988 104.659 73.54 104.979 72.964C105.299 72.372 105.459 71.668 105.459 70.852ZM118.221 66.964H115.893V77.5H112.485V66.964H110.973V64.204H112.485V63.532C112.485 61.9 112.949 60.7 113.877 59.932C114.805 59.164 116.205 58.804 118.077 58.852V61.684C117.261 61.668 116.693 61.804 116.373 62.092C116.053 62.38 115.893 62.9 115.893 63.652V64.204H118.221V66.964ZM124.31 66.964V73.396C124.31 73.844 124.414 74.172 124.622 74.38C124.846 74.572 125.214 74.668 125.726 74.668H127.286V77.5H125.174C122.342 77.5 120.926 76.124 120.926 73.372V66.964H119.342V64.204H120.926V60.916H124.31V64.204H127.286V66.964H124.31ZM128.839 70.804C128.839 69.46 129.103 68.268 129.631 67.228C130.175 66.188 130.903 65.388 131.815 64.828C132.743 64.268 133.775 63.988 134.911 63.988C135.903 63.988 136.767 64.188 137.503 64.588C138.255 64.988 138.855 65.492 139.303 66.1V64.204H142.687V77.5H139.303V75.556C138.871 76.18 138.271 76.7 137.503 77.116C136.751 77.516 135.879 77.716 134.887 77.716C133.767 77.716 132.743 77.428 131.815 76.852C130.903 76.276 130.175 75.468 129.631 74.428C129.103 73.372 128.839 72.164 128.839 70.804ZM139.303 70.852C139.303 70.036 139.143 69.34 138.823 68.764C138.503 68.172 138.071 67.724 137.527 67.42C136.983 67.1 136.399 66.94 135.775 66.94C135.151 66.94 134.575 67.092 134.047 67.396C133.519 67.7 133.087 68.148 132.751 68.74C132.431 69.316 132.271 70.004 132.271 70.804C132.271 71.604 132.431 72.308 132.751 72.916C133.087 73.508 133.519 73.964 134.047 74.284C134.591 74.604 135.167 74.764 135.775 74.764C136.399 74.764 136.983 74.612 137.527 74.308C138.071 73.988 138.503 73.54 138.823 72.964C139.143 72.372 139.303 71.668 139.303 70.852ZM149.329 66.268C149.761 65.564 150.321 65.012 151.009 64.612C151.713 64.212 152.513 64.012 153.409 64.012V67.54H152.521C151.465 67.54 150.665 67.788 150.121 68.284C149.593 68.78 149.329 69.644 149.329 70.876V77.5H145.969V64.204H149.329V66.268ZM173.606 65.932C173.606 66.828 173.39 67.668 172.958 68.452C172.542 69.236 171.878 69.868 170.966 70.348C170.07 70.828 168.934 71.068 167.558 71.068H164.75V77.5H161.39V60.748H167.558C168.854 60.748 169.958 60.972 170.87 61.42C171.782 61.868 172.462 62.484 172.91 63.268C173.374 64.052 173.606 64.94 173.606 65.932ZM167.414 68.356C168.342 68.356 169.03 68.148 169.478 67.732C169.926 67.3 170.15 66.7 170.15 65.932C170.15 64.3 169.238 63.484 167.414 63.484H164.75V68.356H167.414ZM175.128 70.804C175.128 69.46 175.392 68.268 175.92 67.228C176.464 66.188 177.192 65.388 178.104 64.828C179.032 64.268 180.064 63.988 181.2 63.988C182.192 63.988 183.056 64.188 183.792 64.588C184.544 64.988 185.144 65.492 185.592 66.1V64.204H188.976V77.5H185.592V75.556C185.16 76.18 184.56 76.7 183.792 77.116C183.04 77.516 182.168 77.716 181.176 77.716C180.056 77.716 179.032 77.428 178.104 76.852C177.192 76.276 176.464 75.468 175.92 74.428C175.392 73.372 175.128 72.164 175.128 70.804ZM185.592 70.852C185.592 70.036 185.432 69.34 185.112 68.764C184.792 68.172 184.36 67.724 183.816 67.42C183.272 67.1 182.688 66.94 182.064 66.94C181.44 66.94 180.864 67.092 180.336 67.396C179.808 67.7 179.376 68.148 179.04 68.74C178.72 69.316 178.56 70.004 178.56 70.804C178.56 71.604 178.72 72.308 179.04 72.916C179.376 73.508 179.808 73.964 180.336 74.284C180.88 74.604 181.456 74.764 182.064 74.764C182.688 74.764 183.272 74.612 183.816 74.308C184.36 73.988 184.792 73.54 185.112 72.964C185.432 72.372 185.592 71.668 185.592 70.852ZM200.13 77.5L195.618 71.836V77.5H192.258V59.74H195.618V69.844L200.082 64.204H204.45L198.594 70.876L204.498 77.5H200.13ZM218.633 70.564C218.633 71.044 218.601 71.476 218.537 71.86H208.817C208.897 72.82 209.233 73.572 209.825 74.116C210.417 74.66 211.145 74.932 212.009 74.932C213.257 74.932 214.145 74.396 214.673 73.324H218.297C217.913 74.604 217.177 75.66 216.089 76.492C215.001 77.308 213.665 77.716 212.081 77.716C210.801 77.716 209.649 77.436 208.625 76.876C207.617 76.3 206.825 75.492 206.249 74.452C205.689 73.412 205.409 72.212 205.409 70.852C205.409 69.476 205.689 68.268 206.249 67.228C206.809 66.188 207.593 65.388 208.601 64.828C209.609 64.268 210.769 63.988 212.081 63.988C213.345 63.988 214.473 64.26 215.465 64.804C216.473 65.348 217.249 66.124 217.793 67.132C218.353 68.124 218.633 69.268 218.633 70.564ZM215.153 69.604C215.137 68.74 214.825 68.052 214.217 67.54C213.609 67.012 212.865 66.748 211.985 66.748C211.153 66.748 210.449 67.004 209.873 67.516C209.313 68.012 208.969 68.708 208.841 69.604H215.153ZM224.998 66.964V73.396C224.998 73.844 225.102 74.172 225.31 74.38C225.534 74.572 225.902 74.668 226.414 74.668H227.974V77.5H225.862C223.03 77.5 221.614 76.124 221.614 73.372V66.964H220.03V64.204H221.614V60.916H224.998V64.204H227.974V66.964H224.998Z" fill="white"/>
</g>
<defs>
<filter id="filter0_b_869_30" x="-24" y="-24" width="354" height="187" filterUnits="userSpaceOnUse" color-interpolation-filters="sRGB">
<feFlood flood-opacity="0" result="BackgroundImageFix"/>
<feGaussianBlur in="BackgroundImageFix" stdDeviation="12"/>
<feComposite in2="SourceAlpha" operator="in" result="effect1_backgroundBlur_869_30"/>
<feBlend mode="normal" in="SourceGraphic" in2="effect1_backgroundBlur_869_30" result="shape"/>
</filter>
</defs>
</svg>
