<svg width="306" height="139" viewBox="0 0 306 139" fill="none" xmlns="http://www.w3.org/2000/svg">
<g filter="url(#filter0_b_869_29)">
<rect width="306" height="139" rx="12" fill="black" fill-opacity="0.57"/>
<path d="M36.92 60.748V77.5H33.56V66.604L29.072 77.5H26.528L22.016 66.604V77.5H18.656V60.748H22.472L27.8 73.204L33.128 60.748H36.92ZM39.3779 70.804C39.3779 69.46 39.6419 68.268 40.1699 67.228C40.7139 66.188 41.4419 65.388 42.3539 64.828C43.2819 64.268 44.3139 63.988 45.4499 63.988C46.4419 63.988 47.3059 64.188 48.0419 64.588C48.7939 64.988 49.3939 65.492 49.8419 66.1V64.204H53.2259V77.5H49.8419V75.556C49.4099 76.18 48.8099 76.7 48.0419 77.116C47.2899 77.516 46.4179 77.716 45.4259 77.716C44.3059 77.716 43.2819 77.428 42.3539 76.852C41.4419 76.276 40.7139 75.468 40.1699 74.428C39.6419 73.372 39.3779 72.164 39.3779 70.804ZM49.8419 70.852C49.8419 70.036 49.6819 69.34 49.3619 68.764C49.0419 68.172 48.6099 67.724 48.0659 67.42C47.5219 67.1 46.9379 66.94 46.3139 66.94C45.6899 66.94 45.1139 67.092 44.5859 67.396C44.0579 67.7 43.6259 68.148 43.2899 68.74C42.9699 69.316 42.8099 70.004 42.8099 70.804C42.8099 71.604 42.9699 72.308 43.2899 72.916C43.6259 73.508 44.0579 73.964 44.5859 74.284C45.1299 74.604 45.7059 74.764 46.3139 74.764C46.9379 74.764 47.5219 74.612 48.0659 74.308C48.6099 73.988 49.0419 73.54 49.3619 72.964C49.6819 72.372 49.8419 71.668 49.8419 70.852ZM63.8756 64.012C65.4596 64.012 66.7396 64.516 67.7156 65.524C68.6916 66.516 69.1796 67.908 69.1796 69.7V77.5H65.8196V70.156C65.8196 69.1 65.5556 68.292 65.0276 67.732C64.4996 67.156 63.7796 66.868 62.8676 66.868C61.9396 66.868 61.2036 67.156 60.6596 67.732C60.1316 68.292 59.8676 69.1 59.8676 70.156V77.5H56.5076V64.204H59.8676V65.86C60.3156 65.284 60.8836 64.836 61.5716 64.516C62.2756 64.18 63.0436 64.012 63.8756 64.012ZM71.5107 70.804C71.5107 69.46 71.7747 68.268 72.3027 67.228C72.8468 66.188 73.5748 65.388 74.4868 64.828C75.4148 64.268 76.4468 63.988 77.5828 63.988C78.5748 63.988 79.4388 64.188 80.1748 64.588C80.9268 64.988 81.5268 65.492 81.9748 66.1V64.204H85.3588V77.5H81.9748V75.556C81.5428 76.18 80.9428 76.7 80.1748 77.116C79.4228 77.516 78.5508 77.716 77.5588 77.716C76.4388 77.716 75.4148 77.428 74.4868 76.852C73.5748 76.276 72.8468 75.468 72.3027 74.428C71.7747 73.372 71.5107 72.164 71.5107 70.804ZM81.9748 70.852C81.9748 70.036 81.8148 69.34 81.4948 68.764C81.1748 68.172 80.7428 67.724 80.1988 67.42C79.6548 67.1 79.0708 66.94 78.4468 66.94C77.8228 66.94 77.2468 67.092 76.7188 67.396C76.1908 67.7 75.7588 68.148 75.4228 68.74C75.1028 69.316 74.9428 70.004 74.9428 70.804C74.9428 71.604 75.1028 72.308 75.4228 72.916C75.7588 73.508 76.1908 73.964 76.7188 74.284C77.2628 74.604 77.8388 74.764 78.4468 74.764C79.0708 74.764 79.6548 74.612 80.1988 74.308C80.7428 73.988 81.1748 73.54 81.4948 72.964C81.8148 72.372 81.9748 71.668 81.9748 70.852ZM90.3444 62.62C89.7364 62.62 89.2324 62.436 88.8324 62.068C88.4484 61.684 88.2564 61.212 88.2564 60.652C88.2564 60.092 88.4484 59.628 88.8324 59.26C89.2324 58.876 89.7364 58.684 90.3444 58.684C90.9364 58.684 91.4244 58.876 91.8084 59.26C92.1924 59.628 92.3844 60.092 92.3844 60.652C92.3844 61.212 92.1924 61.684 91.8084 62.068C91.4244 62.436 90.9364 62.62 90.3444 62.62ZM92.0004 79.684C92.0004 81.156 91.6324 82.212 90.8964 82.852C90.1764 83.508 89.1364 83.836 87.7764 83.836H86.2884V80.98H87.2484C87.7604 80.98 88.1204 80.876 88.3284 80.668C88.5364 80.476 88.6404 80.156 88.6404 79.708V64.204H92.0004V79.684ZM107.68 70.564C107.68 71.044 107.648 71.476 107.584 71.86H97.8641C97.9441 72.82 98.2801 73.572 98.8721 74.116C99.4641 74.66 100.192 74.932 101.056 74.932C102.304 74.932 103.192 74.396 103.72 73.324H107.344C106.96 74.604 106.224 75.66 105.136 76.492C104.048 77.308 102.712 77.716 101.128 77.716C99.8481 77.716 98.6961 77.436 97.6721 76.876C96.6641 76.3 95.8721 75.492 95.2961 74.452C94.7361 73.412 94.4561 72.212 94.4561 70.852C94.4561 69.476 94.7361 68.268 95.2961 67.228C95.8561 66.188 96.6401 65.388 97.6481 64.828C98.6561 64.268 99.8161 63.988 101.128 63.988C102.392 63.988 103.52 64.26 104.512 64.804C105.52 65.348 106.296 66.124 106.84 67.132C107.4 68.124 107.68 69.268 107.68 70.564ZM104.2 69.604C104.184 68.74 103.872 68.052 103.264 67.54C102.656 67.012 101.912 66.748 101.032 66.748C100.2 66.748 99.4961 67.004 98.9201 67.516C98.3601 68.012 98.0161 68.708 97.8881 69.604H104.2ZM126.645 64.012C128.277 64.012 129.589 64.516 130.581 65.524C131.589 66.516 132.093 67.908 132.093 69.7V77.5H128.733V70.156C128.733 69.116 128.469 68.324 127.941 67.78C127.413 67.22 126.693 66.94 125.781 66.94C124.869 66.94 124.141 67.22 123.597 67.78C123.069 68.324 122.805 69.116 122.805 70.156V77.5H119.445V70.156C119.445 69.116 119.181 68.324 118.653 67.78C118.125 67.22 117.405 66.94 116.493 66.94C115.565 66.94 114.829 67.22 114.285 67.78C113.757 68.324 113.493 69.116 113.493 70.156V77.5H110.133V64.204H113.493V65.812C113.925 65.252 114.477 64.812 115.149 64.492C115.837 64.172 116.589 64.012 117.405 64.012C118.445 64.012 119.373 64.236 120.189 64.684C121.005 65.116 121.637 65.74 122.085 66.556C122.517 65.788 123.141 65.172 123.957 64.708C124.789 64.244 125.685 64.012 126.645 64.012ZM147.641 70.564C147.641 71.044 147.609 71.476 147.545 71.86H137.825C137.905 72.82 138.241 73.572 138.833 74.116C139.425 74.66 140.153 74.932 141.017 74.932C142.265 74.932 143.153 74.396 143.681 73.324H147.305C146.921 74.604 146.185 75.66 145.097 76.492C144.009 77.308 142.673 77.716 141.089 77.716C139.809 77.716 138.657 77.436 137.633 76.876C136.625 76.3 135.833 75.492 135.257 74.452C134.697 73.412 134.417 72.212 134.417 70.852C134.417 69.476 134.697 68.268 135.257 67.228C135.817 66.188 136.601 65.388 137.609 64.828C138.617 64.268 139.777 63.988 141.089 63.988C142.353 63.988 143.481 64.26 144.473 64.804C145.481 65.348 146.257 66.124 146.801 67.132C147.361 68.124 147.641 69.268 147.641 70.564ZM144.161 69.604C144.145 68.74 143.833 68.052 143.225 67.54C142.617 67.012 141.873 66.748 140.993 66.748C140.161 66.748 139.457 67.004 138.881 67.516C138.321 68.012 137.977 68.708 137.849 69.604H144.161ZM157.462 64.012C159.046 64.012 160.326 64.516 161.302 65.524C162.278 66.516 162.766 67.908 162.766 69.7V77.5H159.406V70.156C159.406 69.1 159.142 68.292 158.614 67.732C158.086 67.156 157.366 66.868 156.454 66.868C155.526 66.868 154.79 67.156 154.246 67.732C153.718 68.292 153.454 69.1 153.454 70.156V77.5H150.094V64.204H153.454V65.86C153.902 65.284 154.47 64.836 155.158 64.516C155.862 64.18 156.63 64.012 157.462 64.012ZM183.079 60.748V63.46H178.615V77.5H175.255V63.46H170.791V60.748H183.079ZM188.891 66.268C189.323 65.564 189.883 65.012 190.571 64.612C191.275 64.212 192.075 64.012 192.971 64.012V67.54H192.083C191.027 67.54 190.227 67.788 189.683 68.284C189.155 68.78 188.891 69.644 188.891 70.876V77.5H185.531V64.204H188.891V66.268ZM194.37 70.804C194.37 69.46 194.634 68.268 195.162 67.228C195.706 66.188 196.434 65.388 197.346 64.828C198.274 64.268 199.306 63.988 200.442 63.988C201.434 63.988 202.298 64.188 203.034 64.588C203.786 64.988 204.386 65.492 204.834 66.1V64.204H208.218V77.5H204.834V75.556C204.402 76.18 203.802 76.7 203.034 77.116C202.282 77.516 201.41 77.716 200.418 77.716C199.298 77.716 198.274 77.428 197.346 76.852C196.434 76.276 195.706 75.468 195.162 74.428C194.634 73.372 194.37 72.164 194.37 70.804ZM204.834 70.852C204.834 70.036 204.674 69.34 204.354 68.764C204.034 68.172 203.602 67.724 203.058 67.42C202.514 67.1 201.93 66.94 201.306 66.94C200.682 66.94 200.106 67.092 199.578 67.396C199.05 67.7 198.618 68.148 198.282 68.74C197.962 69.316 197.802 70.004 197.802 70.804C197.802 71.604 197.962 72.308 198.282 72.916C198.618 73.508 199.05 73.964 199.578 74.284C200.122 74.604 200.698 74.764 201.306 74.764C201.93 74.764 202.514 74.612 203.058 74.308C203.602 73.988 204.034 73.54 204.354 72.964C204.674 72.372 204.834 71.668 204.834 70.852ZM218.868 64.012C220.452 64.012 221.732 64.516 222.708 65.524C223.684 66.516 224.172 67.908 224.172 69.7V77.5H220.812V70.156C220.812 69.1 220.548 68.292 220.02 67.732C219.492 67.156 218.772 66.868 217.86 66.868C216.932 66.868 216.196 67.156 215.652 67.732C215.124 68.292 214.86 69.1 214.86 70.156V77.5H211.5V64.204H214.86V65.86C215.308 65.284 215.876 64.836 216.564 64.516C217.268 64.18 218.036 64.012 218.868 64.012ZM232.455 77.716C231.367 77.716 230.391 77.524 229.527 77.14C228.663 76.74 227.975 76.204 227.463 75.532C226.967 74.86 226.695 74.116 226.647 73.3H230.031C230.095 73.812 230.343 74.236 230.775 74.572C231.223 74.908 231.775 75.076 232.431 75.076C233.071 75.076 233.567 74.948 233.919 74.692C234.287 74.436 234.471 74.108 234.471 73.708C234.471 73.276 234.247 72.956 233.799 72.748C233.367 72.524 232.671 72.284 231.711 72.028C230.719 71.788 229.903 71.54 229.263 71.284C228.639 71.028 228.095 70.636 227.631 70.108C227.183 69.58 226.959 68.868 226.959 67.972C226.959 67.236 227.167 66.564 227.583 65.956C228.015 65.348 228.623 64.868 229.407 64.516C230.207 64.164 231.143 63.988 232.215 63.988C233.799 63.988 235.063 64.388 236.007 65.188C236.951 65.972 237.471 67.036 237.567 68.38H234.351C234.303 67.852 234.079 67.436 233.679 67.132C233.295 66.812 232.775 66.652 232.119 66.652C231.511 66.652 231.039 66.764 230.703 66.988C230.383 67.212 230.223 67.524 230.223 67.924C230.223 68.372 230.447 68.716 230.895 68.956C231.343 69.18 232.039 69.412 232.983 69.652C233.943 69.892 234.735 70.14 235.359 70.396C235.983 70.652 236.519 71.052 236.967 71.596C237.431 72.124 237.671 72.828 237.687 73.708C237.687 74.476 237.471 75.164 237.039 75.772C236.623 76.38 236.015 76.86 235.215 77.212C234.431 77.548 233.511 77.716 232.455 77.716ZM239.581 70.804C239.581 69.46 239.845 68.268 240.373 67.228C240.917 66.188 241.645 65.388 242.557 64.828C243.485 64.268 244.517 63.988 245.653 63.988C246.645 63.988 247.509 64.188 248.245 64.588C248.997 64.988 249.597 65.492 250.045 66.1V64.204H253.429V77.5H250.045V75.556C249.613 76.18 249.013 76.7 248.245 77.116C247.493 77.516 246.621 77.716 245.629 77.716C244.509 77.716 243.485 77.428 242.557 76.852C241.645 76.276 240.917 75.468 240.373 74.428C239.845 73.372 239.581 72.164 239.581 70.804ZM250.045 70.852C250.045 70.036 249.885 69.34 249.565 68.764C249.245 68.172 248.813 67.724 248.269 67.42C247.725 67.1 247.141 66.94 246.517 66.94C245.893 66.94 245.317 67.092 244.789 67.396C244.261 67.7 243.829 68.148 243.493 68.74C243.173 69.316 243.013 70.004 243.013 70.804C243.013 71.604 243.173 72.308 243.493 72.916C243.829 73.508 244.261 73.964 244.789 74.284C245.333 74.604 245.909 74.764 246.517 74.764C247.141 74.764 247.725 74.612 248.269 74.308C248.813 73.988 249.245 73.54 249.565 72.964C249.885 72.372 250.045 71.668 250.045 70.852ZM264.583 77.5L260.071 71.836V77.5H256.711V59.74H260.071V69.844L264.535 64.204H268.903L263.047 70.876L268.951 77.5H264.583ZM275.814 77.716C274.726 77.716 273.75 77.524 272.886 77.14C272.022 76.74 271.334 76.204 270.822 75.532C270.326 74.86 270.054 74.116 270.006 73.3H273.39C273.454 73.812 273.702 74.236 274.134 74.572C274.582 74.908 275.134 75.076 275.79 75.076C276.43 75.076 276.926 74.948 277.278 74.692C277.646 74.436 277.83 74.108 277.83 73.708C277.83 73.276 277.606 72.956 277.158 72.748C276.726 72.524 276.03 72.284 275.07 72.028C274.078 71.788 273.262 71.54 272.622 71.284C271.998 71.028 271.454 70.636 270.99 70.108C270.542 69.58 270.318 68.868 270.318 67.972C270.318 67.236 270.526 66.564 270.942 65.956C271.374 65.348 271.982 64.868 272.766 64.516C273.566 64.164 274.502 63.988 275.574 63.988C277.158 63.988 278.422 64.388 279.366 65.188C280.31 65.972 280.83 67.036 280.926 68.38H277.71C277.662 67.852 277.438 67.436 277.038 67.132C276.654 66.812 276.134 66.652 275.478 66.652C274.87 66.652 274.398 66.764 274.062 66.988C273.742 67.212 273.582 67.524 273.582 67.924C273.582 68.372 273.806 68.716 274.254 68.956C274.702 69.18 275.398 69.412 276.342 69.652C277.302 69.892 278.094 70.14 278.718 70.396C279.342 70.652 279.878 71.052 280.326 71.596C280.79 72.124 281.03 72.828 281.046 73.708C281.046 74.476 280.83 75.164 280.398 75.772C279.982 76.38 279.374 76.86 278.574 77.212C277.79 77.548 276.87 77.716 275.814 77.716ZM285.508 62.62C284.916 62.62 284.42 62.436 284.02 62.068C283.636 61.684 283.444 61.212 283.444 60.652C283.444 60.092 283.636 59.628 284.02 59.26C284.42 58.876 284.916 58.684 285.508 58.684C286.1 58.684 286.588 58.876 286.972 59.26C287.372 59.628 287.572 60.092 287.572 60.652C287.572 61.212 287.372 61.684 286.972 62.068C286.588 62.436 286.1 62.62 285.508 62.62ZM287.164 64.204V77.5H283.804V64.204H287.164Z" fill="white"/>
</g>
<defs>
<filter id="filter0_b_869_29" x="-24" y="-24" width="354" height="187" filterUnits="userSpaceOnUse" color-interpolation-filters="sRGB">
<feFlood flood-opacity="0" result="BackgroundImageFix"/>
<feGaussianBlur in="BackgroundImageFix" stdDeviation="12"/>
<feComposite in2="SourceAlpha" operator="in" result="effect1_backgroundBlur_869_29"/>
<feBlend mode="normal" in="SourceGraphic" in2="effect1_backgroundBlur_869_29" result="shape"/>
</filter>
</defs>
</svg>
