<svg width="20" height="17" viewBox="0 0 20 17" fill="none" xmlns="http://www.w3.org/2000/svg">
<path d="M19.2857 0H0.714286C0.319196 0 0 0.345313 0 0.772727V16.2273C0 16.6547 0.319196 17 0.714286 17H19.2857C19.6808 17 20 16.6547 20 16.2273V0.772727C20 0.345313 19.6808 0 19.2857 0ZM17.4821 2.62969L10.4397 8.55796C10.2656 8.70526 10.0223 8.70526 9.84821 8.55796L2.80357 2.62969C2.77702 2.60752 2.75754 2.57691 2.74787 2.54216C2.7382 2.50742 2.73882 2.47026 2.74965 2.43592C2.76048 2.40157 2.78097 2.37175 2.80825 2.35064C2.83554 2.32953 2.86824 2.31818 2.90179 2.31818H17.3839C17.4175 2.31818 17.4502 2.32953 17.4775 2.35064C17.5047 2.37175 17.5252 2.40157 17.5361 2.43592C17.5469 2.47026 17.5475 2.50742 17.5378 2.54216C17.5282 2.57691 17.5087 2.60752 17.4821 2.62969V2.62969Z" fill="black"/>
</svg>
