<svg width="20" height="20" viewBox="0 0 20 20" fill="none" xmlns="http://www.w3.org/2000/svg">
<g clip-path="url(#clip0_658_27)">
<path d="M13.5586 0.960842C13.8594 0.234279 14.6524 -0.15244 15.4102 0.0545917L18.8477 0.992092C19.5274 1.17959 20 1.79678 20 2.4999C20 12.164 12.1641 19.9999 2.50003 19.9999C1.7969 19.9999 1.17971 19.5272 0.992214 18.8476L0.0547138 15.4101C-0.152317 14.6522 0.234401 13.8593 0.960964 13.5585L4.71096 11.996C5.34768 11.7304 6.08596 11.914 6.51956 12.4491L8.09768 14.3749C10.8477 13.0741 13.0742 10.8476 14.375 8.09756L12.4492 6.52334C11.9141 6.08584 11.7305 5.35147 11.9961 4.71475L13.5586 0.964748V0.960842Z" fill="black"/>
</g>
<defs>
<clipPath id="clip0_658_27">
<rect width="20" height="20" fill="white"/>
</clipPath>
</defs>
</svg>
