<svg width="21" height="22" viewBox="0 0 21 22" fill="none" xmlns="http://www.w3.org/2000/svg">
<path d="M13.0909 7.91649H15.2727V9.89559H13.0909V7.91649ZM15.2727 3.95831H13.0909V5.9374H15.2727V3.95831ZM8.72727 13.8538H10.9091V11.8747H8.72727V13.8538ZM10.9091 3.95831H8.72727V5.9374H10.9091V3.95831ZM8.72727 9.89559H10.9091V7.91649H8.72727V9.89559ZM6.54545 3.95831H4.36364V5.9374H6.54545V3.95831ZM6.54545 7.91649H4.36364V9.89559H6.54545V7.91649ZM12.6 19.791H10.9091V16.3276H8.72727V19.791H2.18182V1.97921H17.4545V9.92527C18.2291 9.98464 18.9709 10.2023 19.6364 10.519V0.00012207H0V21.7701H14.0836C13.6364 21.216 13.0909 20.5431 12.6 19.791ZM4.36364 17.812H6.54545V15.8329H4.36364V17.812ZM6.54545 11.8747H4.36364V13.8538H6.54545V11.8747ZM20.7273 15.3381C20.7273 17.9109 16.9091 21.7701 16.9091 21.7701C16.9091 21.7701 13.0909 17.9109 13.0909 15.3381C13.0909 13.458 14.8364 11.8747 16.9091 11.8747C18.9818 11.8747 20.7273 13.458 20.7273 15.3381ZM18.2182 15.437C18.2182 14.8433 17.5636 14.2496 16.9091 14.2496C16.2545 14.2496 15.6 14.7444 15.6 15.437C15.6 16.0308 16.1455 16.6245 16.9091 16.6245C17.6727 16.6245 18.3273 16.0308 18.2182 15.437Z" fill="white"/>
</svg>
