<svg width="24" height="16" viewBox="0 0 24 16" fill="none" xmlns="http://www.w3.org/2000/svg">
<path d="M22.2857 0.00012207H1.71429C1.25963 0.00012207 0.823593 0.16395 0.502103 0.455565C0.180612 0.747181 0 1.1427 0 1.5551V13.9949C0 14.4074 0.180612 14.8029 0.502103 15.0945C0.823593 15.3861 1.25963 15.5499 1.71429 15.5499H22.2857C22.7404 15.5499 23.1764 15.3861 23.4979 15.0945C23.8194 14.8029 24 14.4074 24 13.9949V1.5551C24 1.1427 23.8194 0.747181 23.4979 0.455565C23.1764 0.16395 22.7404 0.00012207 22.2857 0.00012207ZM20.4 1.5551L12 6.82649L3.6 1.5551H20.4ZM1.71429 13.9949V2.26262L11.5114 8.41257C11.6549 8.50285 11.8254 8.55124 12 8.55124C12.1746 8.55124 12.3451 8.50285 12.4886 8.41257L22.2857 2.26262V13.9949H1.71429Z" fill="white"/>
</svg>
