<svg width="26" height="22" viewBox="0 0 26 22" fill="none" xmlns="http://www.w3.org/2000/svg">
<path d="M1 6.86144C1 1.00037 7.46154 1.00037 13 1.00037C18.5385 1.00037 25 1.00037 25 6.86144C25 13.5598 18.5385 6.02414 18.5385 6.02414H7.46154C7.46154 6.02414 1 13.5598 1 6.86144ZM8.38462 8.53603C8.38462 8.53603 3.76923 12.7225 3.76923 20.2582H22.2308C22.2308 12.7225 17.6154 8.53603 17.6154 8.53603H8.38462Z" stroke="white" stroke-width="2" stroke-linecap="round" stroke-linejoin="round"/>
<path d="M12.9999 17.7454C15.0391 17.7454 16.6922 16.2461 16.6922 14.3967C16.6922 12.5473 15.0391 11.0481 12.9999 11.0481C10.9607 11.0481 9.30762 12.5473 9.30762 14.3967C9.30762 16.2461 10.9607 17.7454 12.9999 17.7454Z" stroke="white" stroke-width="2" stroke-linecap="round" stroke-linejoin="round"/>
</svg>
