<svg width="400" height="139" viewBox="0 0 400 139" fill="none" xmlns="http://www.w3.org/2000/svg">
<g filter="url(#filter0_b_869_29)">
<rect width="400" height="139" rx="12" fill="black" fill-opacity="0.57"/>
<path d="M83.92 60.748V77.5H80.56V66.604L76.072 77.5H73.528L69.016 66.604V77.5H65.656V60.748H69.472L74.8 73.204L80.128 60.748H83.92ZM86.3779 70.804C86.3779 69.46 86.6419 68.268 87.1699 67.228C87.7139 66.188 88.4419 65.388 89.3539 64.828C90.2819 64.268 91.3139 63.988 92.4499 63.988C93.4419 63.988 94.3059 64.188 95.0419 64.588C95.7939 64.988 96.3939 65.492 96.8419 66.1V64.204H100.226V77.5H96.8419V75.556C96.4099 76.18 95.8099 76.7 95.0419 77.116C94.2899 77.516 93.4179 77.716 92.4259 77.716C91.3059 77.716 90.2819 77.428 89.3539 76.852C88.4419 76.276 87.7139 75.468 87.1699 74.428C86.6419 73.372 86.3779 72.164 86.3779 70.804ZM96.8419 70.852C96.8419 70.036 96.6819 69.34 96.3619 68.764C96.0419 68.172 95.6099 67.724 95.0659 67.42C94.5219 67.1 93.9379 66.94 93.3139 66.94C92.6899 66.94 92.1139 67.092 91.5859 67.396C91.0579 67.7 90.6259 68.148 90.2899 68.74C89.9699 69.316 89.8099 70.004 89.8099 70.804C89.8099 71.604 89.9699 72.308 90.2899 72.916C90.6259 73.508 91.0579 73.964 91.5859 74.284C92.1299 74.604 92.7059 74.764 93.3139 74.764C93.9379 74.764 94.5219 74.612 95.0659 74.308C95.6099 73.988 96.0419 73.54 96.3619 72.964C96.6819 72.372 96.8419 71.668 96.8419 70.852ZM110.876 64.012C112.46 64.012 113.74 64.516 114.716 65.524C115.692 66.516 116.18 67.908 116.18 69.7V77.5H112.82V70.156C112.82 69.1 112.556 68.292 112.028 67.732C111.5 67.156 110.78 66.868 109.868 66.868C108.94 66.868 108.204 67.156 107.66 67.732C107.132 68.292 106.868 69.1 106.868 70.156V77.5H103.508V64.204H106.868V65.86C107.316 65.284 107.884 64.836 108.572 64.516C109.276 64.18 110.044 64.012 110.876 64.012ZM118.511 70.804C118.511 69.46 118.775 68.268 119.303 67.228C119.847 66.188 120.575 65.388 121.487 64.828C122.415 64.268 123.447 63.988 124.583 63.988C125.575 63.988 126.439 64.188 127.175 64.588C127.927 64.988 128.527 65.492 128.975 66.1V64.204H132.359V77.5H128.975V75.556C128.543 76.18 127.943 76.7 127.175 77.116C126.423 77.516 125.551 77.716 124.559 77.716C123.439 77.716 122.415 77.428 121.487 76.852C120.575 76.276 119.847 75.468 119.303 74.428C118.775 73.372 118.511 72.164 118.511 70.804ZM128.975 70.852C128.975 70.036 128.815 69.34 128.495 68.764C128.175 68.172 127.743 67.724 127.199 67.42C126.655 67.1 126.071 66.94 125.447 66.94C124.823 66.94 124.247 67.092 123.719 67.396C123.191 67.7 122.759 68.148 122.423 68.74C122.103 69.316 121.943 70.004 121.943 70.804C121.943 71.604 122.103 72.308 122.423 72.916C122.759 73.508 123.191 73.964 123.719 74.284C124.263 74.604 124.839 74.764 125.447 74.764C126.071 74.764 126.655 74.612 127.199 74.308C127.743 73.988 128.175 73.54 128.495 72.964C128.815 72.372 128.975 71.668 128.975 70.852ZM137.344 62.62C136.736 62.62 136.232 62.436 135.832 62.068C135.448 61.684 135.256 61.212 135.256 60.652C135.256 60.092 135.448 59.628 135.832 59.26C136.232 58.876 136.736 58.684 137.344 58.684C137.936 58.684 138.424 58.876 138.808 59.26C139.192 59.628 139.384 60.092 139.384 60.652C139.384 61.212 139.192 61.684 138.808 62.068C138.424 62.436 137.936 62.62 137.344 62.62ZM139 79.684C139 81.156 138.632 82.212 137.896 82.852C137.176 83.508 136.136 83.836 134.776 83.836H133.288V80.98H134.248C134.76 80.98 135.12 80.876 135.328 80.668C135.536 80.476 135.64 80.156 135.64 79.708V64.204H139V79.684ZM154.68 70.564C154.68 71.044 154.648 71.476 154.584 71.86H144.864C144.944 72.82 145.28 73.572 145.872 74.116C146.464 74.66 147.192 74.932 148.056 74.932C149.304 74.932 150.192 74.396 150.72 73.324H154.344C153.96 74.604 153.224 75.66 152.136 76.492C151.048 77.308 149.712 77.716 148.128 77.716C146.848 77.716 145.696 77.436 144.672 76.876C143.664 76.3 142.872 75.492 142.296 74.452C141.736 73.412 141.456 72.212 141.456 70.852C141.456 69.476 141.736 68.268 142.296 67.228C142.856 66.188 143.64 65.388 144.648 64.828C145.656 64.268 146.816 63.988 148.128 63.988C149.392 63.988 150.52 64.26 151.512 64.804C152.52 65.348 153.296 66.124 153.84 67.132C154.4 68.124 154.68 69.268 154.68 70.564ZM151.2 69.604C151.184 68.74 150.872 68.052 150.264 67.54C149.656 67.012 148.912 66.748 148.032 66.748C147.2 66.748 146.496 67.004 145.92 67.516C145.36 68.012 145.016 68.708 144.888 69.604H151.2ZM173.645 64.012C175.277 64.012 176.589 64.516 177.581 65.524C178.589 66.516 179.093 67.908 179.093 69.7V77.5H175.733V70.156C175.733 69.116 175.469 68.324 174.941 67.78C174.413 67.22 173.693 66.94 172.781 66.94C171.869 66.94 171.141 67.22 170.597 67.78C170.069 68.324 169.805 69.116 169.805 70.156V77.5H166.445V70.156C166.445 69.116 166.181 68.324 165.653 67.78C165.125 67.22 164.405 66.94 163.493 66.94C162.565 66.94 161.829 67.22 161.285 67.78C160.757 68.324 160.493 69.116 160.493 70.156V77.5H157.133V64.204H160.493V65.812C160.925 65.252 161.477 64.812 162.149 64.492C162.837 64.172 163.589 64.012 164.405 64.012C165.445 64.012 166.373 64.236 167.189 64.684C168.005 65.116 168.637 65.74 169.085 66.556C169.517 65.788 170.141 65.172 170.957 64.708C171.789 64.244 172.685 64.012 173.645 64.012ZM194.641 70.564C194.641 71.044 194.609 71.476 194.545 71.86H184.825C184.905 72.82 185.241 73.572 185.833 74.116C186.425 74.66 187.153 74.932 188.017 74.932C189.265 74.932 190.153 74.396 190.681 73.324H194.305C193.921 74.604 193.185 75.66 192.097 76.492C191.009 77.308 189.673 77.716 188.089 77.716C186.809 77.716 185.657 77.436 184.633 76.876C183.625 76.3 182.833 75.492 182.257 74.452C181.697 73.412 181.417 72.212 181.417 70.852C181.417 69.476 181.697 68.268 182.257 67.228C182.817 66.188 183.601 65.388 184.609 64.828C185.617 64.268 186.777 63.988 188.089 63.988C189.353 63.988 190.481 64.26 191.473 64.804C192.481 65.348 193.257 66.124 193.801 67.132C194.361 68.124 194.641 69.268 194.641 70.564ZM191.161 69.604C191.145 68.74 190.833 68.052 190.225 67.54C189.617 67.012 188.873 66.748 187.993 66.748C187.161 66.748 186.457 67.004 185.881 67.516C185.321 68.012 184.977 68.708 184.849 69.604H191.161ZM204.462 64.012C206.046 64.012 207.326 64.516 208.302 65.524C209.278 66.516 209.766 67.908 209.766 69.7V77.5H206.406V70.156C206.406 69.1 206.142 68.292 205.614 67.732C205.086 67.156 204.366 66.868 203.454 66.868C202.526 66.868 201.79 67.156 201.246 67.732C200.718 68.292 200.454 69.1 200.454 70.156V77.5H197.094V64.204H200.454V65.86C200.902 65.284 201.47 64.836 202.158 64.516C202.862 64.18 203.63 64.012 204.462 64.012ZM230.079 60.748V63.46H225.615V77.5H222.255V63.46H217.791V60.748H230.079ZM235.891 66.268C236.323 65.564 236.883 65.012 237.571 64.612C238.275 64.212 239.075 64.012 239.971 64.012V67.54H239.083C238.027 67.54 237.227 67.788 236.683 68.284C236.155 68.78 235.891 69.644 235.891 70.876V77.5H232.531V64.204H235.891V66.268ZM241.37 70.804C241.37 69.46 241.634 68.268 242.162 67.228C242.706 66.188 243.434 65.388 244.346 64.828C245.274 64.268 246.306 63.988 247.442 63.988C248.434 63.988 249.298 64.188 250.034 64.588C250.786 64.988 251.386 65.492 251.834 66.1V64.204H255.218V77.5H251.834V75.556C251.402 76.18 250.802 76.7 250.034 77.116C249.282 77.516 248.41 77.716 247.418 77.716C246.298 77.716 245.274 77.428 244.346 76.852C243.434 76.276 242.706 75.468 242.162 74.428C241.634 73.372 241.37 72.164 241.37 70.804ZM251.834 70.852C251.834 70.036 251.674 69.34 251.354 68.764C251.034 68.172 250.602 67.724 250.058 67.42C249.514 67.1 248.93 66.94 248.306 66.94C247.682 66.94 247.106 67.092 246.578 67.396C246.05 67.7 245.618 68.148 245.282 68.74C244.962 69.316 244.802 70.004 244.802 70.804C244.802 71.604 244.962 72.308 245.282 72.916C245.618 73.508 246.05 73.964 246.578 74.284C247.122 74.604 247.698 74.764 248.306 74.764C248.93 74.764 249.514 74.612 250.058 74.308C250.602 73.988 251.034 73.54 251.354 72.964C251.674 72.372 251.834 71.668 251.834 70.852ZM265.868 64.012C267.452 64.012 268.732 64.516 269.708 65.524C270.684 66.516 271.172 67.908 271.172 69.7V77.5H267.812V70.156C267.812 69.1 267.548 68.292 267.02 67.732C266.492 67.156 265.772 66.868 264.86 66.868C263.932 66.868 263.196 67.156 262.652 67.732C262.124 68.292 261.86 69.1 261.86 70.156V77.5H258.5V64.204H261.86V65.86C262.308 65.284 262.876 64.836 263.564 64.516C264.268 64.18 265.036 64.012 265.868 64.012ZM279.455 77.716C278.367 77.716 277.391 77.524 276.527 77.14C275.663 76.74 274.975 76.204 274.463 75.532C273.967 74.86 273.695 74.116 273.647 73.3H277.031C277.095 73.812 277.343 74.236 277.775 74.572C278.223 74.908 278.775 75.076 279.431 75.076C280.071 75.076 280.567 74.948 280.919 74.692C281.287 74.436 281.471 74.108 281.471 73.708C281.471 73.276 281.247 72.956 280.799 72.748C280.367 72.524 279.671 72.284 278.711 72.028C277.719 71.788 276.903 71.54 276.263 71.284C275.639 71.028 275.095 70.636 274.631 70.108C274.183 69.58 273.959 68.868 273.959 67.972C273.959 67.236 274.167 66.564 274.583 65.956C275.015 65.348 275.623 64.868 276.407 64.516C277.207 64.164 278.143 63.988 279.215 63.988C280.799 63.988 282.063 64.388 283.007 65.188C283.951 65.972 284.471 67.036 284.567 68.38H281.351C281.303 67.852 281.079 67.436 280.679 67.132C280.295 66.812 279.775 66.652 279.119 66.652C278.511 66.652 278.039 66.764 277.703 66.988C277.383 67.212 277.223 67.524 277.223 67.924C277.223 68.372 277.447 68.716 277.895 68.956C278.343 69.18 279.039 69.412 279.983 69.652C280.943 69.892 281.735 70.14 282.359 70.396C282.983 70.652 283.519 71.052 283.967 71.596C284.431 72.124 284.671 72.828 284.687 73.708C284.687 74.476 284.471 75.164 284.039 75.772C283.623 76.38 283.015 76.86 282.215 77.212C281.431 77.548 280.511 77.716 279.455 77.716ZM286.581 70.804C286.581 69.46 286.845 68.268 287.373 67.228C287.917 66.188 288.645 65.388 289.557 64.828C290.485 64.268 291.517 63.988 292.653 63.988C293.645 63.988 294.509 64.188 295.245 64.588C295.997 64.988 296.597 65.492 297.045 66.1V64.204H300.429V77.5H297.045V75.556C296.613 76.18 296.013 76.7 295.245 77.116C294.493 77.516 293.621 77.716 292.629 77.716C291.509 77.716 290.485 77.428 289.557 76.852C288.645 76.276 287.917 75.468 287.373 74.428C286.845 73.372 286.581 72.164 286.581 70.804ZM297.045 70.852C297.045 70.036 296.885 69.34 296.565 68.764C296.245 68.172 295.813 67.724 295.269 67.42C294.725 67.1 294.141 66.94 293.517 66.94C292.893 66.94 292.317 67.092 291.789 67.396C291.261 67.7 290.829 68.148 290.493 68.74C290.173 69.316 290.013 70.004 290.013 70.804C290.013 71.604 290.173 72.308 290.493 72.916C290.829 73.508 291.261 73.964 291.789 74.284C292.333 74.604 292.909 74.764 293.517 74.764C294.141 74.764 294.725 74.612 295.269 74.308C295.813 73.988 296.245 73.54 296.565 72.964C296.885 72.372 297.045 71.668 297.045 70.852ZM311.583 77.5L307.071 71.836V77.5H303.711V59.74H307.071V69.844L311.535 64.204H315.903L310.047 70.876L315.951 77.5H311.583ZM322.814 77.716C321.726 77.716 320.75 77.524 319.886 77.14C319.022 76.74 318.334 76.204 317.822 75.532C317.326 74.86 317.054 74.116 317.006 73.3H320.39C320.454 73.812 320.702 74.236 321.134 74.572C321.582 74.908 322.134 75.076 322.79 75.076C323.43 75.076 323.926 74.948 324.278 74.692C324.646 74.436 324.83 74.108 324.83 73.708C324.83 73.276 324.606 72.956 324.158 72.748C323.726 72.524 323.03 72.284 322.07 72.028C321.078 71.788 320.262 71.54 319.622 71.284C318.998 71.028 318.454 70.636 317.99 70.108C317.542 69.58 317.318 68.868 317.318 67.972C317.318 67.236 317.526 66.564 317.942 65.956C318.374 65.348 318.982 64.868 319.766 64.516C320.566 64.164 321.502 63.988 322.574 63.988C324.158 63.988 325.422 64.388 326.366 65.188C327.31 65.972 327.83 67.036 327.926 68.38H324.71C324.662 67.852 324.438 67.436 324.038 67.132C323.654 66.812 323.134 66.652 322.478 66.652C321.87 66.652 321.398 66.764 321.062 66.988C320.742 67.212 320.582 67.524 320.582 67.924C320.582 68.372 320.806 68.716 321.254 68.956C321.702 69.18 322.398 69.412 323.342 69.652C324.302 69.892 325.094 70.14 325.718 70.396C326.342 70.652 326.878 71.052 327.326 71.596C327.79 72.124 328.03 72.828 328.046 73.708C328.046 74.476 327.83 75.164 327.398 75.772C326.982 76.38 326.374 76.86 325.574 77.212C324.79 77.548 323.87 77.716 322.814 77.716ZM332.508 62.62C331.916 62.62 331.42 62.436 331.02 62.068C330.636 61.684 330.444 61.212 330.444 60.652C330.444 60.092 330.636 59.628 331.02 59.26C331.42 58.876 331.916 58.684 332.508 58.684C333.1 58.684 333.588 58.876 333.972 59.26C334.372 59.628 334.572 60.092 334.572 60.652C334.572 61.212 334.372 61.684 333.972 62.068C333.588 62.436 333.1 62.62 332.508 62.62ZM334.164 64.204V77.5H330.804V64.204H334.164Z" fill="white"/>
</g>
<defs>
<filter id="filter0_b_869_29" x="-24" y="-24" width="448" height="187" filterUnits="userSpaceOnUse" color-interpolation-filters="sRGB">
<feFlood flood-opacity="0" result="BackgroundImageFix"/>
<feGaussianBlur in="BackgroundImageFix" stdDeviation="12"/>
<feComposite in2="SourceAlpha" operator="in" result="effect1_backgroundBlur_869_29"/>
<feBlend mode="normal" in="SourceGraphic" in2="effect1_backgroundBlur_869_29" result="shape"/>
</filter>
</defs>
</svg>
