<svg width="400" height="139" viewBox="0 0 400 139" fill="none" xmlns="http://www.w3.org/2000/svg">
<g filter="url(#filter0_b_869_30)">
<rect width="400" height="139" rx="12" fill="black" fill-opacity="0.57"/>
<path d="M131.512 60.748C133.272 60.748 134.816 61.092 136.144 61.78C137.488 62.468 138.52 63.452 139.24 64.732C139.976 65.996 140.344 67.468 140.344 69.148C140.344 70.828 139.976 72.3 139.24 73.564C138.52 74.812 137.488 75.78 136.144 76.468C134.816 77.156 133.272 77.5 131.512 77.5H125.656V60.748H131.512ZM131.392 74.644C133.152 74.644 134.512 74.164 135.472 73.204C136.432 72.244 136.912 70.892 136.912 69.148C136.912 67.404 136.432 66.044 135.472 65.068C134.512 64.076 133.152 63.58 131.392 63.58H129.016V74.644H131.392ZM141.995 70.804C141.995 69.46 142.259 68.268 142.787 67.228C143.331 66.188 144.059 65.388 144.971 64.828C145.899 64.268 146.931 63.988 148.067 63.988C149.059 63.988 149.923 64.188 150.659 64.588C151.411 64.988 152.011 65.492 152.459 66.1V64.204H155.843V77.5H152.459V75.556C152.027 76.18 151.427 76.7 150.659 77.116C149.907 77.516 149.035 77.716 148.043 77.716C146.923 77.716 145.899 77.428 144.971 76.852C144.059 76.276 143.331 75.468 142.787 74.428C142.259 73.372 141.995 72.164 141.995 70.804ZM152.459 70.852C152.459 70.036 152.299 69.34 151.979 68.764C151.659 68.172 151.227 67.724 150.683 67.42C150.139 67.1 149.555 66.94 148.931 66.94C148.307 66.94 147.731 67.092 147.203 67.396C146.675 67.7 146.243 68.148 145.907 68.74C145.587 69.316 145.427 70.004 145.427 70.804C145.427 71.604 145.587 72.308 145.907 72.916C146.243 73.508 146.675 73.964 147.203 74.284C147.747 74.604 148.323 74.764 148.931 74.764C149.555 74.764 150.139 74.612 150.683 74.308C151.227 73.988 151.659 73.54 151.979 72.964C152.299 72.372 152.459 71.668 152.459 70.852ZM165.221 66.964H162.893V77.5H159.485V66.964H157.973V64.204H159.485V63.532C159.485 61.9 159.949 60.7 160.877 59.932C161.805 59.164 163.205 58.804 165.077 58.852V61.684C164.261 61.668 163.693 61.804 163.373 62.092C163.053 62.38 162.893 62.9 162.893 63.652V64.204H165.221V66.964ZM171.31 66.964V73.396C171.31 73.844 171.414 74.172 171.622 74.38C171.846 74.572 172.214 74.668 172.726 74.668H174.286V77.5H172.174C169.342 77.5 167.926 76.124 167.926 73.372V66.964H166.342V64.204H167.926V60.916H171.31V64.204H174.286V66.964H171.31ZM175.839 70.804C175.839 69.46 176.103 68.268 176.631 67.228C177.175 66.188 177.903 65.388 178.815 64.828C179.743 64.268 180.775 63.988 181.911 63.988C182.903 63.988 183.767 64.188 184.503 64.588C185.255 64.988 185.855 65.492 186.303 66.1V64.204H189.687V77.5H186.303V75.556C185.871 76.18 185.271 76.7 184.503 77.116C183.751 77.516 182.879 77.716 181.887 77.716C180.767 77.716 179.743 77.428 178.815 76.852C177.903 76.276 177.175 75.468 176.631 74.428C176.103 73.372 175.839 72.164 175.839 70.804ZM186.303 70.852C186.303 70.036 186.143 69.34 185.823 68.764C185.503 68.172 185.071 67.724 184.527 67.42C183.983 67.1 183.399 66.94 182.775 66.94C182.151 66.94 181.575 67.092 181.047 67.396C180.519 67.7 180.087 68.148 179.751 68.74C179.431 69.316 179.271 70.004 179.271 70.804C179.271 71.604 179.431 72.308 179.751 72.916C180.087 73.508 180.519 73.964 181.047 74.284C181.591 74.604 182.167 74.764 182.775 74.764C183.399 74.764 183.983 74.612 184.527 74.308C185.071 73.988 185.503 73.54 185.823 72.964C186.143 72.372 186.303 71.668 186.303 70.852ZM196.329 66.268C196.761 65.564 197.321 65.012 198.009 64.612C198.713 64.212 199.513 64.012 200.409 64.012V67.54H199.521C198.465 67.54 197.665 67.788 197.121 68.284C196.593 68.78 196.329 69.644 196.329 70.876V77.5H192.969V64.204H196.329V66.268ZM220.606 65.932C220.606 66.828 220.39 67.668 219.958 68.452C219.542 69.236 218.878 69.868 217.966 70.348C217.07 70.828 215.934 71.068 214.558 71.068H211.75V77.5H208.39V60.748H214.558C215.854 60.748 216.958 60.972 217.87 61.42C218.782 61.868 219.462 62.484 219.91 63.268C220.374 64.052 220.606 64.94 220.606 65.932ZM214.414 68.356C215.342 68.356 216.03 68.148 216.478 67.732C216.926 67.3 217.15 66.7 217.15 65.932C217.15 64.3 216.238 63.484 214.414 63.484H211.75V68.356H214.414ZM222.128 70.804C222.128 69.46 222.392 68.268 222.92 67.228C223.464 66.188 224.192 65.388 225.104 64.828C226.032 64.268 227.064 63.988 228.2 63.988C229.192 63.988 230.056 64.188 230.792 64.588C231.544 64.988 232.144 65.492 232.592 66.1V64.204H235.976V77.5H232.592V75.556C232.16 76.18 231.56 76.7 230.792 77.116C230.04 77.516 229.168 77.716 228.176 77.716C227.056 77.716 226.032 77.428 225.104 76.852C224.192 76.276 223.464 75.468 222.92 74.428C222.392 73.372 222.128 72.164 222.128 70.804ZM232.592 70.852C232.592 70.036 232.432 69.34 232.112 68.764C231.792 68.172 231.36 67.724 230.816 67.42C230.272 67.1 229.688 66.94 229.064 66.94C228.44 66.94 227.864 67.092 227.336 67.396C226.808 67.7 226.376 68.148 226.04 68.74C225.72 69.316 225.56 70.004 225.56 70.804C225.56 71.604 225.72 72.308 226.04 72.916C226.376 73.508 226.808 73.964 227.336 74.284C227.88 74.604 228.456 74.764 229.064 74.764C229.688 74.764 230.272 74.612 230.816 74.308C231.36 73.988 231.792 73.54 232.112 72.964C232.432 72.372 232.592 71.668 232.592 70.852ZM247.13 77.5L242.618 71.836V77.5H239.258V59.74H242.618V69.844L247.082 64.204H251.45L245.594 70.876L251.498 77.5H247.13ZM265.633 70.564C265.633 71.044 265.601 71.476 265.537 71.86H255.817C255.897 72.82 256.233 73.572 256.825 74.116C257.417 74.66 258.145 74.932 259.009 74.932C260.257 74.932 261.145 74.396 261.673 73.324H265.297C264.913 74.604 264.177 75.66 263.089 76.492C262.001 77.308 260.665 77.716 259.081 77.716C257.801 77.716 256.649 77.436 255.625 76.876C254.617 76.3 253.825 75.492 253.249 74.452C252.689 73.412 252.409 72.212 252.409 70.852C252.409 69.476 252.689 68.268 253.249 67.228C253.809 66.188 254.593 65.388 255.601 64.828C256.609 64.268 257.769 63.988 259.081 63.988C260.345 63.988 261.473 64.26 262.465 64.804C263.473 65.348 264.249 66.124 264.793 67.132C265.353 68.124 265.633 69.268 265.633 70.564ZM262.153 69.604C262.137 68.74 261.825 68.052 261.217 67.54C260.609 67.012 259.865 66.748 258.985 66.748C258.153 66.748 257.449 67.004 256.873 67.516C256.313 68.012 255.969 68.708 255.841 69.604H262.153ZM271.998 66.964V73.396C271.998 73.844 272.102 74.172 272.31 74.38C272.534 74.572 272.902 74.668 273.414 74.668H274.974V77.5H272.862C270.03 77.5 268.614 76.124 268.614 73.372V66.964H267.03V64.204H268.614V60.916H271.998V64.204H274.974V66.964H271.998Z" fill="white"/>
</g>
<defs>
<filter id="filter0_b_869_30" x="-24" y="-24" width="448" height="187" filterUnits="userSpaceOnUse" color-interpolation-filters="sRGB">
<feFlood flood-opacity="0" result="BackgroundImageFix"/>
<feGaussianBlur in="BackgroundImageFix" stdDeviation="12"/>
<feComposite in2="SourceAlpha" operator="in" result="effect1_backgroundBlur_869_30"/>
<feBlend mode="normal" in="SourceGraphic" in2="effect1_backgroundBlur_869_30" result="shape"/>
</filter>
</defs>
</svg>
