<svg width="40" height="40" viewBox="0 0 40 40" fill="none" xmlns="http://www.w3.org/2000/svg">
<g clip-path="url(#clip0_518_1312)">
<path d="M27.1172 1.92168C27.7188 0.468558 29.3047 -0.304879 30.8204 0.109183L37.6954 1.98418C39.0547 2.35918 40 3.59356 40 4.99981C40 24.3279 24.3282 39.9998 5.00005 39.9998C3.5938 39.9998 2.35943 39.0545 1.98443 37.6951L0.109428 30.8201C-0.304635 29.3045 0.468803 27.7186 1.92193 27.117L9.42193 23.992C10.6954 23.4607 12.1719 23.8279 13.0391 24.8982L16.1954 28.7498C21.6954 26.1482 26.1485 21.6951 28.7501 16.1951L24.8985 13.0467C23.8282 12.1717 23.461 10.7029 23.9922 9.4295L27.1172 1.9295V1.92168Z" fill="black"/>
</g>
<defs>
<clipPath id="clip0_518_1312">
<rect width="40" height="40" fill="white"/>
</clipPath>
</defs>
</svg>
